<svg xmlns="http://www.w3.org/2000/svg" width="1024" height="561" viewBox="-9.0562197 -9.0562197 584.11635 319.98643"><path d="m 148.78,9.625 c 0.412,67.16 -0.811,134.36 0.594,201.5 3.515,18.786 19.05,31.849 31.703,44.778 44.497,39.93 113.49,50.09 167.3,23.816 27.315,-13.01 51.91,-33.739 66.09,-60.813 5.585,-17.304 1.368,-35.748 2.754,-53.56 0.054,-52.573 0.068,-105.15 0.059,-157.72 -89.5,0 -179,0 -268.5,0 v 1 1 z" fill="#fff"/><path d="m 228.44 153.89 c 20.418 14.767 49.21 17.11 71.74 4.997 24.449 -12.666 39.24 -38.715 36.981 -66.816 -0.426 -4.069 -1.063 -8.05 -2.137 -11.9 6.915 10.391 10.87 22.683 10.87 35.927 0 35.794 -29.02 64.814 -64.813 64.814 -21.676 0 -40.898 -10.647 -52.642 -27.02" fill="#d9d9d9"/><path d="m 218.29 173.44 l -39.93 27.06 l 2.834 4.153 l 17.933 -12.175 l 2.727 4.153 l -14.938 10.11 c -1.01 0.685 -1.774 1.975 -2.317 2.995 l 2.816 4.243 c 0.627 -1.241 1.201 -2.315 2.317 -3.066 l 13.28 -8.949 c 2.46 -1.666 2.751 -3.149 2.46 -4.421 1.245 0.631 2.57 1.039 4.474 -0.25 l 12.656 -8.574 c 1.437 -0.971 2.177 -2.603 2.175 -4.207 0 -0.963 -0.257 -1.901 -0.838 -2.763 l -5.651 -8.307 z m -1.319 6.988 l 2.816 4.136 l -13.779 9.252 l -2.834 -4.046 l 13.797 -9.341 z m 9.84 7.612 l -30.553 37.559 l 7.665 6.346 c 2.153 1.755 5.336 1.41 7.095 -0.749 l 9.341 -11.426 c 1.884 -2.312 1.753 -3.743 1.105 -4.884 1.376 0.246 2.731 0.289 4.189 -1.497 l 9.644 -11.872 c 1.648 -2.02 1.448 -4.919 -0.357 -6.72 h -0.018 c -0.12 -0.12 -0.24 -0.23 -0.374 -0.339 l -7.736 -6.417 z m 0.66 7.148 l 3.922 3.173 l -10.535 12.852 l -3.904 -3.173 l 10.517 -12.852 z m -13.69 16.756 l 3.922 3.173 l -10.535 12.995 l -3.904 -3.173 l 10.517 -12.995 z m 136.31 -24.784 c -3.446 -2.249 -4.428 -6.912 -2.178 -10.358 2.246 -3.446 6.912 -4.428 10.358 -2.178 l 4.575 2.983 l -2.728 4.18 l -6.324 -4.129 l -2.728 4.18 l 31.965 20.855 l 2.728 -4.18 l -13.894 -9.06 l -1.177 1.807 l -4.18 -2.728 l 3.905 -5.984 l 16.322 10.649 c 3.446 2.246 4.428 6.912 2.178 10.358 -2.246 3.446 -6.912 4.428 -10.358 2.178 l -28.464 -18.57 z m 23.931 34.491 l -3.468 3.59 l -34.63 -33.451 l 3.468 -3.59 z m -25.18 13.522 l -5.03 -8.616 l 4.311 -2.52 l 7.547 12.932 l -12.928 7.546 l -2.515 -4.308 l -10.742 -37.925 l -4.192 2.449 l 5.03 8.624 l -4.309 2.512 l -7.55 -12.927 l 12.927 -7.55 l 2.516 4.312 l 10.745 37.921 z m -48.1 -26.363 l 9.679 -2.428 c 2.68 -0.675 5.38 0.941 6.05 3.626 l 4.04 16.09 c 0.675 2.68 -0.944 5.381 -3.626 6.05 l -4.839 1.214 l 5.252 20.928 l -4.839 1.214 l -11.718 -46.695 z m 10.09 19.718 l 4.839 -1.214 l -4.04 -16.09 l -4.839 1.214 z m -13.434 29.759 l -4.978 0.32 l -3.091 -48.05 l 4.978 -0.32 z m -15.936 -42.26 l -9.949 -0.782 l -1.299 16.54 l 7.461 0.585 l -0.388 4.973 l -7.462 -0.588 l -1.296 16.538 l 9.949 0.782 l -0.391 4.974 l -9.949 -0.782 c -2.758 -0.215 -4.802 -2.606 -4.587 -5.364 l 2.991 -38.05 c 0.215 -2.758 2.607 -4.799 5.365 -4.583 l 9.949 0.782 l -0.394 4.976 z m -23.677 -10.932 l -14.1 40.793 l 4.716 1.629 l 3.262 -9.431 l 4.713 1.63 l -4.892 14.15 l -14.15 -4.896 l 15.729 -45.504 z m 4.21 -72.825 c -15.16 -3.643 -25.512 -7.313 -25.512 -7.313 -1.623 -15.651 -0.251 -29.26 -0.251 -29.26 6.578 -3.425 24.351 -11.363 24.351 -11.363 8.463 9.586 16.526 22.453 16.526 22.453 -3.893 7.581 -15.11 25.485 -15.11 25.485 m -24.999 -63.68 c -1.511 2.476 -5.953 9.965 -9.972 18.89 -3.781 4.736 -7.089 9.555 -8.524 11.664 3.231 -11.884 9.745 -22.43 18.495 -30.554 m 68.02 37.685 c 0.014 0 5.655 -11.83 12.493 -21.429 0 0 13.13 6.172 19.309 11.219 0 0 2.284 7.05 0.761 27.757 0 0 -7.838 4.538 -19.18 7.328 0 0 -7.723 -12.999 -13.38 -24.876 m -29.404 48.596 l 28.03 -0.756 l 5.407 15.269 c -10.61 6.304 -23.353 9.597 -23.353 9.597 -13.367 -2.914 -21.08 -8.724 -21.08 -8.724 z m 5.479 -103.57 c 8.538 0 16.711 1.623 24.19 4.636 -0.26 1.218 -1.173 4.617 -3.793 8.974 -13.502 -1.778 -28.52 -0.4 -28.52 -0.4 l -12.493 -9.892 c 6.493 -2.157 13.42 -3.319 20.621 -3.319 m -41.51 114.55 c -10.761 -8.96 -18.536 -21.343 -21.718 -35.478 3.483 3.614 10.183 10.478 10.183 10.478 4.045 8.358 14.12 22.854 14.12 22.854 -0.724 0.818 -1.86 1.649 -2.582 2.146 m 43.663 -152.24 h -128.25 v 74.63 l 13.154 -6.231 v -55.22 h 115.1 h 115.1 v 55.27 l 13.154 6.231 v -74.69 z m 124.34 71.65 c -0.539 -0.274 -1.118 -0.536 -1.674 -0.798 v -65.25 h -122.67 h -122.67 v 65.21 l -1.674 0.788 c 0.002 -34.588 0 -36.522 0 -67.67 h 124.34 h 124.34 c 0.007 33.795 -0.011 33.98 0 67.72 z m -9.241 115.92 c -0.387 7.02 -2.232 10.973 -5.429 15.973 -24.313 34.971 -64.12 57.832 -109.67 57.832 -45.549 0 -85.36 -22.861 -109.67 -57.832 -3.197 -5 -5.04 -8.948 -5.429 -15.973 l 0.05 -41.869 h -13.154 l -0.05 39.04 c -0.019 14.856 1.746 18.362 5.25 24.406 26.794 39.541 71.63 65.51 123 65.51 51.37 0 96.21 -25.967 123 -65.51 3.505 -6.04 5.25 -9.55 5.25 -24.406 v -39.04 h -13.154 z m 7.567 -7.07 v -33.31 h 1.674 v 34.866 c -0.05 8.697 -0.114 17.461 -4.735 24.276 -5.952 9.06 -13.44 17.939 -21.688 25.622 -27.48 24.972 -60.4 38.38 -97.92 38.568 -37.518 -0.185 -70.44 -13.597 -97.92 -38.568 -8.247 -7.683 -15.736 -16.566 -21.688 -25.622 -4.621 -6.815 -4.685 -15.579 -4.735 -24.276 v -34.21 l 1.724 -0.541 v 32.65 c 0.237 8.813 -0.451 18.595 4.449 25.519 6.352 9.679 14.255 18.798 23.25 26.946 26.818 23.5 58.49 36.17 94.92 36.421 36.427 -0.255 68.1 -12.921 94.92 -36.421 8.992 -8.148 16.896 -17.268 23.25 -26.946 4.903 -6.924 4.264 -16.16 4.501 -24.978 z" fill="#001b46" fill-rule="evenodd"/><path d="m 366.92 72 c -5.124 -0.092 -9.768 3.149 -13.03 6.375 -5.086 0.621 -8.01 5.638 -12.267 7.965 -8.01 6.951 -17.333 15.08 -18.764 26.19 0.558 2.096 1.065 3.066 -1.125 4.156 -2.691 4.57 -4.659 9.615 -8.688 13 -1.8 4.633 -9.775 5.435 -8.625 11 0.212 2.696 5.162 2.531 3.406 5.656 5.739 4.157 13.258 0.291 17.813 -3.688 5.326 -0.403 10.265 4.094 15.656 4.844 3.776 0.362 7.352 2.034 11.09 1.719 2.185 -0.549 3.826 -3.743 4.375 0 1.814 5.773 7.706 9.02 13.469 9 6.635 3.385 16.224 8.234 22.594 1.781 1.017 -4.733 6.936 -0.506 10.5 -1.719 5.268 -0.118 6.918 -7.293 1.906 -9.375 -3.092 -1.789 -7.641 -1.321 -10.375 -2.906 2.157 -2.813 -0.133 -7.06 -1.531 -8.594 1.968 -1.137 3.136 -3.274 5.531 -1.188 0.09 6.884 8.863 6.24 13.563 6.813 2.408 -0.146 -2.042 3.853 0.844 4.469 12.519 10.195 29.827 13.698 45.563 11.156 1.525 -0.545 2.692 -3.591 3.844 -0.875 3.32 3.641 8.641 5.618 13.281 5.03 2.215 5.341 10.165 10.02 14.156 3.813 0.8 -1.96 0.592 -3.136 2.656 -1.563 4.183 2.185 10.534 -1.25 8.563 -6.281 0.605 -4.685 -3.641 -8.512 -7.875 -8.969 -2.43 -2.615 -6.429 -1.68 -9.219 -1.938 -2.43 -2.481 -9.453 -0.473 -8 -5.656 -7.177 -0.937 -15.08 -2.164 -21.563 -4.125 0.895 -1.262 4.26 0.894 6.25 0.188 3.305 0.818 8.954 -2.402 5.281 -5.781 -3.324 -2.938 -10.289 -2.958 -12.594 -4.063 33.02 4.958 65.35 13.461 97.72 21.469 3.079 0.095 10.226 1.464 9.156 -3.625 -13.06 -8.64 -29.334 -10.336 -43.987 -15.323 -19.08 -5.265 -39.22 -10.04 -57.919 -14.614 4.272 -3.676 0.56 -10.604 -0.406 -13.938 6.572 2.867 17.294 3.721 20.375 -4.375 1.498 -4.672 -2.197 -9.512 -6.375 -10.688 -0.013 -5.432 -5.886 -7.405 -10.188 -8.375 -3.983 -1.917 -9.992 -2.174 -12.438 2.219 2.187 3.519 -3.963 1.689 -5.844 2.844 -6.316 0.654 -12.482 8.763 -7.06 14.156 1.968 2.511 5.443 5.402 6.563 7.656 -2.961 -0.238 -6.665 0.604 -7.938 3.375 -2.925 -0.765 -6.03 -1.575 -8.844 -2.5 2.72 -4.462 -0.549 -10.363 -5.627 -10.825 -17.02 -7.462 -32.774 -18.491 -50.685 -23.769 -1.047 -0.208 -2.125 -0.173 -3.188 -0.125 z m 78.37 54.56 c 2.251 0.075 8.301 2.14 2.57 0.639 -0.764 -0.149 -2.082 -0.444 -2.57 -0.639 z m -88.47 2.938 c 2.584 -0.501 3.332 2.186 1.688 3.219 -0.314 -1.125 -1.541 -2.558 -1.688 -3.219 z m 29.875 7.75 c 1.107 0.199 -0.766 0.496 0 0 z" fill="#fff"/><g fill="#da0034"><path d="m 494.69 154.22 c 3.119 0.845 2.196 4.449 2.868 6.954 -0.121 0.17 -0.364 0.542 -0.615 0.492 -1.159 -0.492 -3.04 -0.136 -3.905 -1.223 -0.365 -1.287 -0.844 -2.203 -0.973 -3.662 0.3 -1.102 1.466 -2.439 2.625 -2.561 z"/><path d="m 465.95 100.33 c -3.798 -0.69 -7.164 -2.063 -10.876 -3.118 -1.416 -0.722 -3.557 -0.594 -5.114 -0.491 -1.638 0.625 2.657 4.552 3.358 5.497 0.751 0.998 2.06 3.97 2.26 5.178 1.882 3.715 1.418 7.741 -3.54 7.03 -2.236 0.64 -4.164 -0.181 -6.102 -0.307 -1.739 -0.672 -6.338 -1.698 -6.845 -3.572 0.493 -1.392 9.92 0.156 11.701 -1.046 0.851 -0.572 -4.136 -5.569 -4.387 -6.213 -1.187 -2.973 -7.02 -6.61 -7.69 -9.304 -1.424 -5.765 9.247 -6.525 12.888 -7.302 0.765 -0.16 4.253 -1.03 3.574 -2.264 -0.072 -0.132 -0.993 -0.425 -1.393 -0.986 l 0.031 -1.362 c 1.584 -0.723 6.491 -0.317 7.868 1.407 0.429 0.16 4.917 0.914 5.097 1.319 2.232 1.769 1.383 4.826 -0.286 5.271 -2.415 3.565 -3.01 2.725 2.792 3.551 1.467 -0.636 -0.762 -1.607 0.941 -1.964 1.825 0.066 3.269 0.28 4.154 1.78 0.608 1.251 0.402 3.604 -0.392 4.771 -1.431 2.145 -5.599 2.563 -8.04 2.123 z"/><path d="m 486.45 152.01 c 0.207 -0.638 4.234 0.07 4.456 0.851 0.322 1.158 -3.419 1.708 -4.456 -0.851 z"/><path d="m 388.69 145.55 c -1.087 0.115 -1.223 -1.215 -2.196 -1.466 -1.824 1.339 -1.696 3.663 -3.534 4.957 -0.98 0.165 -2.325 -0.429 -3.427 -0.672 -0.722 -0.387 -1.458 -1.116 -1.458 -1.917 0.372 -1.452 1.23 -2.732 1.53 -4.257 0.787 -2.388 3.663 -0.794 5.422 -0.794 1.96 0.487 3.663 -0.3 5.372 -0.679 0.494 0.078 0.795 0.437 1.109 0.737 0.365 0.735 0.235 1.587 -0.072 2.26 -0.542 1.045 -1.644 1.704 -2.746 1.831 z"/></g><path d="m 199.08 72 c 5.124 -0.092 9.768 3.149 13.03 6.375 5.086 0.621 8.01 5.638 12.267 7.965 8.01 6.951 17.333 15.08 18.764 26.19 -0.558 2.096 -1.065 3.066 1.125 4.156 2.691 4.57 4.659 9.615 8.688 13 1.8 4.633 9.775 5.435 8.625 11 -0.212 2.696 -5.162 2.531 -3.406 5.656 -5.739 4.157 -13.258 0.291 -17.813 -3.688 -5.326 -0.403 -10.265 4.094 -15.656 4.844 -3.776 0.362 -7.352 2.034 -11.09 1.719 -2.185 -0.549 -3.826 -3.743 -4.375 0 -1.814 5.773 -7.706 9.02 -13.469 9 -6.635 3.385 -16.224 8.234 -22.594 1.781 -1.017 -4.733 -6.936 -0.506 -10.5 -1.719 -5.268 -0.118 -6.918 -7.293 -1.906 -9.375 3.092 -1.789 7.641 -1.321 10.375 -2.906 -2.157 -2.813 0.133 -7.06 1.531 -8.594 -1.968 -1.137 -3.136 -3.274 -5.531 -1.188 -0.09 6.884 -8.863 6.24 -13.563 6.813 -2.408 -0.146 2.042 3.853 -0.844 4.469 -12.519 10.195 -29.827 13.698 -45.563 11.156 -1.525 -0.545 -2.692 -3.591 -3.844 -0.875 -3.32 3.641 -8.641 5.618 -13.281 5.03 -2.215 5.341 -10.165 10.02 -14.156 3.813 -0.8 -1.96 -0.592 -3.136 -2.656 -1.563 -4.183 2.185 -10.534 -1.25 -8.563 -6.281 -0.605 -4.685 3.641 -8.512 7.875 -8.969 2.43 -2.615 6.429 -1.68 9.219 -1.938 2.43 -2.481 9.453 -0.473 8 -5.656 7.177 -0.937 15.08 -2.164 21.563 -4.125 -0.895 -1.262 -4.26 0.894 -6.25 0.188 -3.305 0.818 -8.954 -2.402 -5.281 -5.781 3.324 -2.938 10.289 -2.958 12.594 -4.063 -33.02 4.958 -65.35 13.461 -97.72 21.469 -3.079 0.095 -10.226 1.464 -9.156 -3.625 13.06 -8.64 29.334 -10.336 43.987 -15.323 19.08 -5.265 39.22 -10.04 57.919 -14.614 -4.272 -3.676 -0.56 -10.604 0.406 -13.938 -6.572 2.867 -17.294 3.721 -20.375 -4.375 -1.498 -4.672 2.197 -9.512 6.375 -10.688 0.013 -5.432 5.886 -7.405 10.188 -8.375 3.983 -1.917 9.992 -2.174 12.438 2.219 -2.187 3.519 3.963 1.689 5.844 2.844 6.316 0.654 12.482 8.763 7.06 14.156 -1.968 2.511 -5.443 5.402 -6.563 7.656 2.961 -0.238 6.665 0.604 7.938 3.375 2.925 -0.765 6.03 -1.575 8.844 -2.5 -2.72 -4.462 0.549 -10.363 5.627 -10.825 17.02 -7.462 32.774 -18.491 50.685 -23.769 1.047 -0.208 2.125 -0.173 3.188 -0.125 z m -78.37 54.56 c -2.251 0.075 -8.301 2.14 -2.57 0.639 0.764 -0.149 2.082 -0.444 2.57 -0.639 z m 88.47 2.938 c -2.584 -0.501 -3.332 2.186 -1.688 3.219 0.314 -1.125 1.541 -2.558 1.688 -3.219 z m -29.875 7.75 c -1.107 0.199 0.766 0.496 0 0 z" fill="#fff"/><g fill="#da0034"><path d="m 71.32 154.22 c -3.119 0.845 -2.196 4.449 -2.868 6.954 0.121 0.17 0.364 0.542 0.615 0.492 1.159 -0.492 3.04 -0.136 3.905 -1.223 0.365 -1.287 0.844 -2.203 0.973 -3.662 -0.3 -1.102 -1.466 -2.439 -2.625 -2.561 z"/><path d="m 100.06 100.33 c 3.798 -0.69 7.164 -2.063 10.876 -3.118 1.416 -0.722 3.557 -0.594 5.114 -0.491 1.638 0.625 -2.657 4.552 -3.358 5.497 -0.751 0.998 -2.06 3.97 -2.26 5.178 -1.882 3.715 -1.418 7.741 3.54 7.03 2.236 0.64 4.164 -0.181 6.102 -0.307 1.739 -0.672 6.338 -1.698 6.845 -3.572 -0.493 -1.392 -9.92 0.156 -11.701 -1.046 -0.851 -0.572 4.136 -5.569 4.387 -6.213 1.187 -2.973 7.02 -6.61 7.69 -9.304 1.424 -5.765 -9.247 -6.525 -12.888 -7.302 -0.765 -0.16 -4.253 -1.03 -3.574 -2.264 0.072 -0.132 0.993 -0.425 1.393 -0.986 l -0.031 -1.362 c -1.584 -0.723 -6.491 -0.317 -7.868 1.407 -0.429 0.16 -4.917 0.914 -5.097 1.319 -2.232 1.769 -1.383 4.826 0.286 5.271 2.415 3.565 3.01 2.725 -2.792 3.551 -1.467 -0.636 0.762 -1.607 -0.941 -1.964 -1.825 0.066 -3.269 0.28 -4.154 1.78 -0.608 1.251 -0.402 3.604 0.392 4.771 1.431 2.145 5.599 2.563 8.04 2.123 z"/><path d="m 79.56 152.01 c -0.207 -0.638 -4.234 0.07 -4.456 0.851 -0.322 1.158 3.419 1.708 4.456 -0.851 z"/><path d="m 255.05,137.74 c -2.776,-1.925 -4.371,-4.907 -6.566,-7.367 -0.816,-0.916 -1.946,-1.561 -2.711,-2.404 -0.486,-0.543 -3.612,-7.254 -4.134,-8.419 l -0.68,-0.361 c -5.687,0.307 -11.38,0.383 -17.07,0.529 -2.467,0.064 -5.658,0.583 -8.08,0.269 -0.357,-0.058 -0.451,-0.344 -0.357,-0.673 5.379,-1.824 15.2,1.073 18.92,-3.901 0.486,-0.684 0.408,-1.85 1.331,-2.082 0.972,0.49 1.995,0.944 3.118,0.683 l 0.487,-0.683 c -0.852,-3.537 -1.781,-7.274 -4.091,-10.189 -3.655,-4.614 -12.568,-14.364 -17.632,-16.896 -2.275,-1.145 -5.079,-5.151 -5.98,-3.73 0.043,0.49 -0.236,0.923 -0.558,1.273 -2.217,0.461 -2.146,-3.741 -5.122,-5.543 -2.997,-1.81 -6.924,-2.762 -10.372,-2.02 -4.234,0.922 -8.604,3.172 -12.445,5.125 -8.47,4.288 -16.932,8.581 -25.437,12.804 -4.01,1.992 -8.04,4.213 -12.16,5.994 -0.965,0.422 -2.36,0.576 -2.811,1.713 -0.58,1.517 0.715,3.756 1.967,4.585 2.611,1.735 6.645,-0.418 9.156,-1.406 l 0.415,0.233 c -1.845,2.331 -3.941,2.382 -6.588,2.929 -2.096,0.44 -4.191,1.556 -6.294,2.149 -2.854,0.805 -5.651,1.699 -8.469,2.604 -1.18,0.383 -3.125,0.662 -2.804,2.388 -0.401,0.959 -1.481,0.824 -2.318,0.966 -9.249,1.695 -18.498,4.02 -27.718,5.988 -5.729,1.237 -11.459,2.624 -17.14,4.084 -18.977,4.936 -37.969,9.664 -56.709,15.458 -1.838,0.565 -11.609,3.404 -12.424,4.198 1.18,0.271 30.765,-7.79 35.15,-8.854 27.611,-6.725 55.614,-11.688 83.6,-16.524 26.523,-4.588 53.42,-8.162 80.12,-11.605 4.643,-0.586 9.321,-1.273 13.97,-1.706 2.99,-0.272 3.498,0.74 5.558,2.679 -0.014,1.327 -5.537,0.984 -6.774,1.108 -0.2,-0.16 -0.186,-0.411 -0.064,-0.607 0.88,-0.476 1.796,-0.851 2.446,-1.656 l -0.314,-0.668 c -9.721,0.83 -19.506,2.632 -29.16,4.109 -14.764,2.271 -29.592,4.478 -44.3,7.121 -9.871,1.785 -19.621,4.273 -29.478,6.162 v 0.429 c 17.818,-1.888 35.4,-6.172 53.15,-8.654 l 0.065,0.473 c -4.307,1.326 -8.763,2.02 -13.13,3.075 -20.11,4.771 -40.41,8.776 -60.54,13.59 3.563,-0.5 7.125,-0.943 10.68,-1.401 1.352,0.829 -0.336,2.274 0.365,3.963 1.209,2.911 3.54,0.164 3.784,1.646 0.1,0.571 -0.673,2.46 -1.273,2.811 -8.126,0.951 -16.07,3.255 -24.17,4.271 l -0.128,0.658 5.064,0.143 0.558,0.422 c 0.028,1.252 -1.817,0.823 -2.625,0.966 -2.861,0.551 -5.701,1.245 -8.548,1.781 -6.316,1.181 -5.457,6.02 -9.885,7.132 -0.457,0.114 -0.787,0.4 -1.102,0.73 -0.085,1.787 2.354,-0.824 3.047,0.871 -0.458,1.803 -1.48,3.52 -0.722,5.423 0.265,0.687 0.701,1.431 1.466,1.646 3.806,1.073 5.3,-5.724 7.69,-7.07 1.945,-1.108 4.327,1.345 6.831,-0.07 1.431,-0.801 2.868,-1.589 4.263,-2.439 1.516,-0.909 3.434,-4.407 5.629,-3.97 1.71,0.343 2.311,2.946 5.122,3.176 4.521,0.372 9.291,0.515 13.79,-0.129 7.361,-1.038 19.792,-4.65 25.26,-9.757 -0.7,-2.074 -6.909,-0.229 -8.418,0 1.402,-2.962 -0.494,-4.277 1.037,-5.01 l 6.344,-0.607 c 1.875,-0.165 3.792,-0.709 5.701,-0.923 1.917,-0.2 3.956,-0.086 5.837,-0.357 1.167,-0.172 3.068,-0.529 3.662,-1.66 -0.165,-0.914 -0.836,-2.103 -0.186,-2.975 0.809,-1.088 2.983,-1.323 4.213,-1.774 1.645,-0.614 2.997,-1.831 4.692,-2.317 1.932,0.594 0.243,3.591 2.511,4.206 2.088,0.593 7.182,-2.117 8.541,-0.415 0,0.915 -0.623,2.289 0.235,2.976 1.374,1.109 3.069,1.316 4.464,2.762 1.767,1.816 4.249,5.25 3.476,7.981 -0.808,2.819 -7.424,5.98 -9.893,4.4 -1.623,-1.038 -1.48,-3.392 -3.776,-2.697 -2.682,0.837 -5.486,1.016 -8.176,1.774 -2.239,0.636 -5.357,1.101 -7.381,2.089 -0.301,0.135 -0.844,0.657 -0.494,1.029 1.052,1.137 11.09,-0.086 13.06,-0.308 0.916,-0.093 1.724,-0.136 2.375,0.615 1.23,1.409 -1.538,1.809 -0.729,3.104 1.13,1.773 4.077,2.425 5.987,1.953 3.462,-0.845 7.146,-2.318 10.415,-3.749 1.044,-0.472 2.188,-1.202 3.247,-1.56 2.583,-0.844 5.422,0.544 7.203,-2.389 1.603,-2.625 3.741,-5.586 3.784,-8.77 0.028,-2.604 -1.631,-4.227 -2.561,-6.48 -0.343,-0.802 -1.981,-4.942 -1.953,-5.551 0.028,-0.4 1.746,-4.398 2.132,-4.449 l 11.287,-1.409 c 0.215,-0.028 0.873,0.465 0.923,0.68 0.458,2.289 -2.99,4.95 -4.22,6.523 -0.458,0.586 -1.41,2.153 -1.159,2.934 0.429,1.287 2.275,-0.688 2.504,0.786 0.165,1.037 -2.196,2.675 -1.953,4.577 0.208,1.589 0.322,3.928 1.953,4.7 2.718,1.294 2.968,-0.938 4.206,-0.98 0.5,-0.007 1.251,0.279 1.832,0.301 1.695,0.022 3.283,-0.529 4.885,-0.965 3.205,-0.881 12.904,-5.423 15.494,-5.071 3.04,0.429 4.735,5.657 14.04,5.922 l 0.493,-0.737 c -3.168,-3.054 -5.493,-1.022 -8.783,-7.683 -0.887,-1.78 -2.396,-3.783 -3.792,-5.185 -0.057,-0.279 0.064,-0.616 0.372,-0.673 5.623,2 6.481,10.815 14.886,10.128 l 0.429,-0.486 c -0.386,-0.951 -2.052,-1.264 -2.881,-1.836 z M 181.152,93.977 c 0.651,-0.805 1.517,-1.349 2.389,-1.874 1.137,0.118 1.795,0.371 2.933,0 2.54,-0.874 12.667,-3.538 14.877,-3.12 0.144,0.694 -0.937,0.784 -1.395,0.916 -6.05,1.667 -12.389,3.126 -18.563,4.328 l -0.241,-0.25 z m 40.4,6.417 c -11.652,1.706 -35.822,5.135 -35.822,5.135 l 1.652,-0.762 34.893,-5.683 c 0.357,-0.061 0.729,0.064 1.022,0.247 0.258,0.851 -1.251,1 -1.745,1.063 z m -86.21,47.19 -11.896,3.048 c -0.25,0 -0.672,-0.079 -0.865,-0.394 0.058,-0.479 0.586,-1.174 1.081,-1.366 3.047,-0.852 6.04,-1.095 9.03,-1.695 1.831,-0.386 2.589,-0.344 3.984,-0.473 l -1.331,0.88 z m 64,1.983 c -0.301,-0.052 -0.665,-0.229 -0.737,-0.601 0.68,-2.568 2.075,-6.095 0.122,-8.671 l -2.804,-6.04 c 0.236,-0.836 1.159,-0.973 1.895,-1.216 0.544,-0.051 1.095,0.479 1.223,1.037 l 3.291,7.755 c 0.729,3.054 -1.045,5.793 -2.99,7.74 z m 31.08,-13.03 c -0.945,0.122 -2.268,0.438 -3.01,-0.135 -0.45,-0.873 0.251,-1.753 0.63,-2.567 0.873,-1.06 2.189,-1.381 3.505,-1.381 0.315,0.25 0.393,0.564 0.393,0.872 -0.143,1.259 -0.393,2.582 -1.516,3.211 z"/><path d="m 177.32 145.55 c 1.087 0.115 1.223 -1.215 2.196 -1.466 1.824 1.339 1.696 3.663 3.534 4.957 0.98 0.165 2.325 -0.429 3.427 -0.672 0.722 -0.387 1.458 -1.116 1.458 -1.917 -0.372 -1.452 -1.23 -2.732 -1.53 -4.257 -0.787 -2.388 -3.663 -0.794 -5.422 -0.794 -1.96 0.487 -3.663 -0.3 -5.372 -0.679 -0.494 0.078 -0.795 0.437 -1.109 0.737 -0.365 0.735 -0.235 1.587 0.072 2.26 0.542 1.045 1.644 1.704 2.746 1.831 z"/><path d="m 310.96,137.74 c 2.776,-1.925 4.371,-4.907 6.566,-7.367 0.816,-0.916 1.946,-1.561 2.711,-2.404 0.486,-0.543 3.612,-7.254 4.134,-8.419 l 0.68,-0.361 c 5.687,0.307 11.38,0.383 17.07,0.529 2.467,0.064 5.658,0.583 8.08,0.269 0.357,-0.058 0.451,-0.344 0.357,-0.673 -5.379,-1.824 -15.2,1.073 -18.92,-3.901 -0.486,-0.684 -0.408,-1.85 -1.331,-2.082 -0.972,0.49 -1.995,0.944 -3.118,0.683 l -0.487,-0.683 c 0.852,-3.537 1.781,-7.274 4.091,-10.189 3.655,-4.614 12.568,-14.364 17.632,-16.896 2.275,-1.145 5.079,-5.151 5.98,-3.73 -0.043,0.49 0.236,0.923 0.558,1.273 2.217,0.461 2.146,-3.741 5.122,-5.543 2.997,-1.81 6.924,-2.762 10.372,-2.02 4.234,0.922 8.604,3.172 12.445,5.125 8.47,4.288 16.932,8.581 25.437,12.804 4.01,1.992 8.04,4.213 12.16,5.994 0.965,0.422 2.36,0.576 2.811,1.713 0.58,1.517 -0.715,3.756 -1.967,4.585 -2.611,1.735 -6.645,-0.418 -9.156,-1.406 l -0.415,0.233 c 1.845,2.331 3.941,2.382 6.588,2.929 2.096,0.44 4.191,1.556 6.294,2.149 2.854,0.805 5.651,1.699 8.469,2.604 1.18,0.383 3.125,0.662 2.804,2.388 0.401,0.959 1.481,0.824 2.318,0.966 9.249,1.695 18.498,4.02 27.718,5.988 5.729,1.237 11.459,2.624 17.14,4.084 18.977,4.936 37.969,9.664 56.709,15.458 1.838,0.565 11.609,3.404 12.424,4.198 -1.18,0.271 -30.765,-7.79 -35.15,-8.854 -27.611,-6.725 -55.614,-11.688 -83.6,-16.524 -26.523,-4.588 -53.42,-8.162 -80.12,-11.605 -4.643,-0.586 -9.321,-1.273 -13.97,-1.706 -2.99,-0.272 -3.498,0.74 -5.558,2.679 0.014,1.327 5.537,0.984 6.774,1.108 0.2,-0.16 0.186,-0.411 0.064,-0.607 -0.88,-0.476 -1.796,-0.851 -2.446,-1.656 l 0.314,-0.668 c 9.721,0.83 19.506,2.632 29.16,4.109 14.764,2.271 29.592,4.478 44.3,7.121 9.871,1.785 19.621,4.273 29.478,6.162 v 0.429 c -17.818,-1.888 -35.4,-6.172 -53.15,-8.654 l -0.065,0.473 c 4.307,1.326 8.763,2.02 13.13,3.075 20.11,4.771 40.41,8.776 60.54,13.59 -3.563,-0.5 -7.125,-0.943 -10.68,-1.401 -1.352,0.829 0.336,2.274 -0.365,3.963 -1.209,2.911 -3.54,0.164 -3.784,1.646 -0.1,0.571 0.673,2.46 1.273,2.811 8.126,0.951 16.07,3.255 24.17,4.271 l 0.128,0.658 -5.064,0.143 -0.558,0.422 c -0.028,1.252 1.817,0.823 2.625,0.966 2.861,0.551 5.701,1.245 8.548,1.781 6.316,1.181 5.457,6.02 9.885,7.132 0.457,0.114 0.787,0.4 1.102,0.73 0.085,1.787 -2.354,-0.824 -3.047,0.871 0.458,1.803 1.48,3.52 0.722,5.423 -0.265,0.687 -0.701,1.431 -1.466,1.646 -3.806,1.073 -5.3,-5.724 -7.69,-7.07 -1.945,-1.108 -4.327,1.345 -6.831,-0.07 -1.431,-0.801 -2.868,-1.589 -4.263,-2.439 -1.516,-0.909 -3.434,-4.407 -5.629,-3.97 -1.71,0.343 -2.311,2.946 -5.122,3.176 -4.521,0.372 -9.291,0.515 -13.79,-0.129 -7.361,-1.038 -19.792,-4.65 -25.26,-9.757 0.7,-2.074 6.909,-0.229 8.418,0 -1.402,-2.962 0.494,-4.277 -1.037,-5.01 l -6.344,-0.607 c -1.875,-0.165 -3.792,-0.709 -5.701,-0.923 -1.917,-0.2 -3.956,-0.086 -5.837,-0.357 -1.167,-0.172 -3.068,-0.529 -3.662,-1.66 0.165,-0.914 0.836,-2.103 0.186,-2.975 -0.809,-1.088 -2.983,-1.323 -4.213,-1.774 -1.645,-0.614 -2.997,-1.831 -4.692,-2.317 -1.932,0.594 -0.243,3.591 -2.511,4.206 -2.088,0.593 -7.182,-2.117 -8.541,-0.415 0,0.915 0.623,2.289 -0.235,2.976 -1.374,1.109 -3.069,1.316 -4.464,2.762 -1.767,1.816 -4.249,5.25 -3.476,7.981 0.808,2.819 7.424,5.98 9.893,4.4 1.623,-1.038 1.48,-3.392 3.776,-2.697 2.682,0.837 5.486,1.016 8.176,1.774 2.239,0.636 5.357,1.101 7.381,2.089 0.301,0.135 0.844,0.657 0.494,1.029 -1.052,1.137 -11.09,-0.086 -13.06,-0.308 -0.916,-0.093 -1.724,-0.136 -2.375,0.615 -1.23,1.409 1.538,1.809 0.729,3.104 -1.13,1.773 -4.077,2.425 -5.987,1.953 -3.462,-0.845 -7.146,-2.318 -10.415,-3.749 -1.044,-0.472 -2.188,-1.202 -3.247,-1.56 -2.583,-0.844 -5.422,0.544 -7.203,-2.389 -1.603,-2.625 -3.741,-5.586 -3.784,-8.77 -0.028,-2.604 1.631,-4.227 2.561,-6.48 0.343,-0.802 1.981,-4.942 1.953,-5.551 -0.028,-0.4 -1.746,-4.398 -2.132,-4.449 l -11.287,-1.409 c -0.215,-0.028 -0.873,0.465 -0.923,0.68 -0.458,2.289 2.99,4.95 4.22,6.523 0.458,0.586 1.41,2.153 1.159,2.934 -0.429,1.287 -2.275,-0.688 -2.504,0.786 -0.165,1.037 2.196,2.675 1.953,4.577 -0.208,1.589 -0.322,3.928 -1.953,4.7 -2.718,1.294 -2.968,-0.938 -4.206,-0.98 -0.5,-0.007 -1.251,0.279 -1.832,0.301 -1.695,0.022 -3.283,-0.529 -4.885,-0.965 -3.205,-0.881 -12.904,-5.423 -15.494,-5.071 -3.04,0.429 -4.735,5.657 -14.04,5.922 l -0.493,-0.737 c 3.168,-3.054 5.493,-1.022 8.783,-7.683 0.887,-1.78 2.396,-3.783 3.792,-5.185 0.057,-0.279 -0.064,-0.616 -0.372,-0.673 -5.623,2 -6.481,10.815 -14.886,10.128 l -0.429,-0.486 c 0.386,-0.951 2.052,-1.264 2.881,-1.836 z m 73.898,-43.763 c -0.651,-0.805 -1.517,-1.349 -2.389,-1.874 -1.137,0.118 -1.795,0.371 -2.933,0 -2.54,-0.874 -12.667,-3.538 -14.877,-3.12 -0.144,0.694 0.937,0.784 1.395,0.916 6.05,1.667 12.389,3.126 18.563,4.328 l 0.241,-0.25 z m -40.4,6.417 c 11.652,1.706 35.822,5.135 35.822,5.135 l -1.652,-0.762 -34.893,-5.683 c -0.357,-0.061 -0.729,0.064 -1.022,0.247 -0.258,0.851 1.251,1 1.745,1.063 z m 86.21,47.19 11.896,3.048 c 0.25,0 0.672,-0.079 0.865,-0.394 -0.058,-0.479 -0.586,-1.174 -1.081,-1.366 -3.047,-0.852 -6.04,-1.095 -9.03,-1.695 -1.831,-0.386 -2.589,-0.344 -3.984,-0.473 l 1.331,0.88 z m -64,1.983 c 0.301,-0.052 0.665,-0.229 0.737,-0.601 -0.68,-2.568 -2.075,-6.095 -0.122,-8.671 l 2.804,-6.04 c -0.236,-0.836 -1.159,-0.973 -1.895,-1.216 -0.544,-0.051 -1.095,0.479 -1.223,1.037 l -3.291,7.755 c -0.729,3.054 1.045,5.793 2.99,7.74 z m -31.08,-13.03 c 0.945,0.122 2.268,0.438 3.01,-0.135 0.45,-0.873 -0.251,-1.753 -0.63,-2.567 -0.873,-1.06 -2.189,-1.381 -3.505,-1.381 -0.315,0.25 -0.393,0.564 -0.393,0.872 0.143,1.259 0.393,2.582 1.516,3.211 z"/></g></svg>